<svg width="12" height="20" viewBox="0 0 12 20" fill="none" xmlns="http://www.w3.org/2000/svg">
<path d="M5.99992 6.6665C5.55789 6.6665 5.13397 6.49091 4.82141 6.17835C4.50885 5.86579 4.33325 5.44187 4.33325 4.99984C4.33325 4.55781 4.50885 4.13389 4.82141 3.82133C5.13397 3.50877 5.55789 3.33317 5.99992 3.33317C6.44195 3.33317 6.86587 3.50877 7.17843 3.82133C7.49099 4.13389 7.66658 4.55781 7.66658 4.99984C7.66658 5.44187 7.49099 5.86579 7.17843 6.17835C6.86587 6.49091 6.44195 6.6665 5.99992 6.6665ZM5.99992 11.6665C5.55789 11.6665 5.13397 11.4909 4.82141 11.1783C4.50885 10.8658 4.33325 10.4419 4.33325 9.99984C4.33325 9.55781 4.50885 9.13389 4.82141 8.82133C5.13397 8.50877 5.55789 8.33317 5.99992 8.33317C6.44195 8.33317 6.86587 8.50877 7.17843 8.82133C7.49099 9.13389 7.66658 9.55781 7.66658 9.99984C7.66658 10.4419 7.49099 10.8658 7.17843 11.1783C6.86587 11.4909 6.44195 11.6665 5.99992 11.6665ZM5.99992 16.6665C5.55789 16.6665 5.13397 16.4909 4.82141 16.1783C4.50885 15.8658 4.33325 15.4419 4.33325 14.9998C4.33325 14.5578 4.50885 14.1339 4.82141 13.8213C5.13397 13.5088 5.55789 13.3332 5.99992 13.3332C6.44195 13.3332 6.86587 13.5088 7.17843 13.8213C7.49099 14.1339 7.66658 14.5578 7.66658 14.9998C7.66658 15.4419 7.49099 15.8658 7.17843 16.1783C6.86587 16.4909 6.44195 16.6665 5.99992 16.6665Z" fill="#72767E"/>
</svg>
