<svg width="20" height="20" viewBox="0 0 20 20" fill="none" xmlns="http://www.w3.org/2000/svg">
<path d="M9.99992 14.9999C8.67384 14.9999 7.40207 14.4731 6.46438 13.5355C5.5267 12.5978 4.99992 11.326 4.99992 9.99992C4.99992 9.16658 5.20825 8.35825 5.58325 7.66658L4.36659 6.44992C3.71659 7.47492 3.33325 8.69158 3.33325 9.99992C3.33325 11.768 4.03563 13.4637 5.28587 14.714C6.53612 15.9642 8.23181 16.6666 9.99992 16.6666V19.1666L13.3333 15.8332L9.99992 12.4999V14.9999ZM9.99992 3.33325V0.833252L6.66658 4.16658L9.99992 7.49992V4.99992C11.326 4.99992 12.5978 5.5267 13.5355 6.46438C14.4731 7.40207 14.9999 8.67383 14.9999 9.99992C14.9999 10.8333 14.7916 11.6416 14.4166 12.3333L15.6333 13.5499C16.2833 12.5249 16.6666 11.3083 16.6666 9.99992C16.6666 8.23181 15.9642 6.53612 14.714 5.28587C13.4637 4.03563 11.768 3.33325 9.99992 3.33325Z" fill="#19191C"/>
</svg>
